<svg xmlns="http://www.w3.org/2000/svg" xmlns:xlink="http://www.w3.org/1999/xlink" width="306" height="265.148" viewBox="0 0 306 265.148">
  <defs>
    <filter id="Path_2484" x="0" y="0" width="306" height="265.148" filterUnits="userSpaceOnUse">
      <feOffset input="SourceAlpha"/>
      <feGaussianBlur stdDeviation="6" result="blur"/>
      <feFlood flood-opacity="0.349"/>
      <feComposite operator="in" in2="blur"/>
      <feComposite in="SourceGraphic"/>
    </filter>
  </defs>
  <g transform="matrix(1, 0, 0, 1, 0, 0)" filter="url(#Path_2484)">
    <path id="Path_2484-2" data-name="Path 2484" d="M0,0V229.148c12.7-4.874,23.142-15.938,24.6-29.363.808-7.466-1.047-14.947-1.3-22.452S24.9,161.48,31.07,157.194c7.015-4.875,16.532-2.67,24.733-.279l81.224,23.678c15.7,4.576,35.5,8.022,45.952-4.548,7.207-8.665,6.3-21.861,1.137-31.88s-13.769-17.727-21.726-25.708c-8.484-8.51-16.59-17.868-20.676-29.168s-3.447-24.966,4.321-34.135c9.462-11.169,26.342-12.633,40.67-9.637s27.846,9.527,42.372,11.338,31.487-2.732,37.941-15.871c3.941-8.025,3.155-17.464,2.228-26.357A95.061,95.061,0,0,1,268.505,0Z" transform="translate(18 18)" fill="#a826c7"/>
  </g>
</svg>
