<svg id="bell-Light" xmlns="http://www.w3.org/2000/svg" width="24" height="24" viewBox="0 0 24 24">
  <rect id="Path" width="24" height="24" fill="rgba(255,255,255,0)"/>
  <path id="bell-Light_1_" d="M223.242,436.775l-1.106-1.846a4.5,4.5,0,0,1-.64-2.312V429.99a6.495,6.495,0,0,0-12.99,0v2.627a4.5,4.5,0,0,1-.64,2.312l-1.106,1.846a1.8,1.8,0,0,0,1.545,2.726h4.263a2.5,2.5,0,1,0,4.868,0H221.7a1.8,1.8,0,0,0,1.543-2.726ZM216.5,440a1.5,1.5,0,1,1-2.9-.5H216.4A1.5,1.5,0,0,1,216.5,440Zm5.894-1.906a.793.793,0,0,1-.7.406H208.3a.8.8,0,0,1-.687-1.21l1.106-1.846a5.5,5.5,0,0,0,.783-2.826v-2.627a5.495,5.495,0,0,1,10.99,0v2.627a5.5,5.5,0,0,0,.783,2.826l1.106,1.846A.788.788,0,0,1,222.394,438.094Z" transform="translate(-203 -421)" fill="#41416e"/>
</svg>
