<svg id="calendar-Light" xmlns="http://www.w3.org/2000/svg" width="32" height="32" viewBox="0 0 32 32">
  <rect id="Path" width="32" height="32" fill="rgba(255,255,255,0)"/>
  <path id="calendar-Light_1_" d="M416.833,496.833h-.667v-.667a.667.667,0,1,0-1.333,0v.667H405.5v-.667a.667.667,0,1,0-1.333,0v.667H403.5a6.007,6.007,0,0,0-6,6v12a6.007,6.007,0,0,0,6,6h13.333a6.007,6.007,0,0,0,6-6v-12A6.006,6.006,0,0,0,416.833,496.833ZM403.5,498.167h.667v2a.667.667,0,0,0,1.333,0v-2h9.333v2a.667.667,0,0,0,1.333,0v-2h.667a4.672,4.672,0,0,1,4.667,4.667v.667H398.833v-.667A4.672,4.672,0,0,1,403.5,498.167ZM416.833,519.5H403.5a4.672,4.672,0,0,1-4.667-4.667v-10H421.5v10A4.673,4.673,0,0,1,416.833,519.5Zm0-10a1.333,1.333,0,1,1-1.333-1.333A1.334,1.334,0,0,1,416.833,509.5Zm-5.333,0a1.333,1.333,0,1,1-1.333-1.333A1.334,1.334,0,0,1,411.5,509.5Zm-5.333,0a1.333,1.333,0,1,1-1.333-1.333A1.334,1.334,0,0,1,406.167,509.5Zm10.667,5.333A1.333,1.333,0,1,1,415.5,513.5,1.334,1.334,0,0,1,416.833,514.833Zm-5.333,0a1.333,1.333,0,1,1-1.333-1.333A1.334,1.334,0,0,1,411.5,514.833Zm-5.333,0a1.333,1.333,0,1,1-1.333-1.333A1.334,1.334,0,0,1,406.167,514.833Z" transform="translate(-394.167 -492.167)" fill="#41416e"/>
</svg>
