<svg id="comments-Light" xmlns="http://www.w3.org/2000/svg" width="32" height="32" viewBox="0 0 32 32">
  <rect id="Path" width="32" height="32" fill="rgba(255,255,255,0)"/>
  <path id="comments-Light_1_" d="M514.167,574.167H513.5v-2a4.672,4.672,0,0,0-4.667-4.667H498.167a4.672,4.672,0,0,0-4.667,4.667V585.5a.667.667,0,0,0,1.143.467l2.417-2.467h1.773v2a4.672,4.672,0,0,0,4.667,4.667h11.773l2.417,2.467a.666.666,0,0,0,1.143-.467V578.833A4.672,4.672,0,0,0,514.167,574.167Zm-17.387,8a.667.667,0,0,0-.476.2l-1.471,1.5v-11.7a3.338,3.338,0,0,1,3.333-3.333h10.667a3.338,3.338,0,0,1,3.333,3.333v6.667a3.338,3.338,0,0,1-3.333,3.333Zm20.72,8.367-1.471-1.5a.667.667,0,0,0-.476-.2H503.5a3.338,3.338,0,0,1-3.333-3.333v-2h8.667a4.672,4.672,0,0,0,4.667-4.667V575.5h.667a3.338,3.338,0,0,1,3.333,3.333Z" transform="translate(-490.167 -564.167)" fill="#41416e"/>
</svg>
