<svg id="pen-Light" xmlns="http://www.w3.org/2000/svg" width="24" height="24" viewBox="0 0 24 24">
  <rect id="Path" width="24" height="24" fill="rgba(255,255,255,0)"/>
  <path id="pen-Light_1_" d="M799.3,352.7a4.08,4.08,0,0,0-5.77,0L783,363.228a2.486,2.486,0,0,0-.7,1.357l-.79,4.738a1.01,1.01,0,0,0,1,1.176.938.938,0,0,0,.166-.014l4.739-.79a2.481,2.481,0,0,0,1.356-.7L799.3,358.464a4.081,4.081,0,0,0,0-5.769Zm-11.241,15.6a1.493,1.493,0,0,1-.813.419l-4.75.778.79-4.738a1.485,1.485,0,0,1,.419-.814l8.26-8.26,4.355,4.356ZM798.6,357.758l-1.567,1.567-4.355-4.356,1.567-1.567a3.08,3.08,0,1,1,4.355,4.356Z" transform="translate(-779 -349)" fill="#41416e"/>
</svg>
