<svg id="plus-square-Light" xmlns="http://www.w3.org/2000/svg" width="24" height="24" viewBox="0 0 24 24">
  <rect id="Path" width="24" height="24" fill="rgba(255,255,255,0)"/>
  <path id="plus-square-Light_1_" d="M602,279.5h-6a6.508,6.508,0,0,0-6.5,6.5v6a6.508,6.508,0,0,0,6.5,6.5h6a6.508,6.508,0,0,0,6.5-6.5v-6A6.508,6.508,0,0,0,602,279.5Zm5.5,12.5a5.506,5.506,0,0,1-5.5,5.5h-6a5.506,5.506,0,0,1-5.5-5.5v-6a5.506,5.506,0,0,1,5.5-5.5h6a5.506,5.506,0,0,1,5.5,5.5Zm-4-3a.5.5,0,0,1-.5.5h-3.5V293a.5.5,0,0,1-1,0v-3.5H595a.5.5,0,0,1,0-1h3.5V285a.5.5,0,0,1,1,0v3.5H603A.5.5,0,0,1,603.5,289Z" transform="translate(-587 -277)" fill="#41416e"/>
</svg>
