<svg id="settings-Light" xmlns="http://www.w3.org/2000/svg" width="32" height="32" viewBox="0 0 32 32">
  <rect id="Path" width="32" height="32" fill="rgba(255,255,255,0)"/>
  <g id="settings-Light-2" data-name="settings-Light" transform="translate(3.333 3.333)">
    <path id="settings-Light-3" data-name="settings-Light" d="M15.187,19.834a4.667,4.667,0,1,1,4.647-4.687A4.673,4.673,0,0,1,15.187,19.834Zm-.033-8a3.333,3.333,0,1,0,3.347,3.32A3.337,3.337,0,0,0,15.154,11.834Zm.733,16-1.333.005a2.671,2.671,0,0,1-2.679-2.656.813.813,0,0,0-.5-.759l-.009,0a.772.772,0,0,0-.841.171,2.678,2.678,0,0,1-3.8.044L5.777,23.7a2.667,2.667,0,0,1-.011-3.777.828.828,0,0,0,.172-.889v0a.778.778,0,0,0-.721-.484A2.676,2.676,0,0,1,2.5,15.887L2.5,14.554a2.671,2.671,0,0,1,2.656-2.679.813.813,0,0,0,.759-.5l0-.009a.776.776,0,0,0-.171-.841,2.679,2.679,0,0,1-.044-3.8l.94-.948a2.669,2.669,0,0,1,3.772-.016.812.812,0,0,0,.892.183.774.774,0,0,0,.487-.721A2.677,2.677,0,0,1,14.447,2.5L15.781,2.5a2.671,2.671,0,0,1,2.679,2.656.79.79,0,0,0,.492.752h0a.821.821,0,0,0,.872-.161,2.656,2.656,0,0,1,1.9-.812h0a2.652,2.652,0,0,1,1.889.773l.944.936a2.67,2.67,0,0,1,.016,3.772.793.793,0,0,0-.191.876l.009.019a.773.773,0,0,0,.72.484,2.677,2.677,0,0,1,2.715,2.655l.005,1.333a2.671,2.671,0,0,1-2.656,2.679.79.79,0,0,0-.752.492h0a.825.825,0,0,0,.161.872,2.666,2.666,0,0,1,.039,3.793l-.936.944a2.669,2.669,0,0,1-3.772.016.8.8,0,0,0-.876-.191.8.8,0,0,0-.5.729A2.677,2.677,0,0,1,15.887,27.831Zm-3.945-4.612a2.15,2.15,0,0,1,1.267,1.919A1.345,1.345,0,0,0,14.547,26.5l1.333-.005a1.335,1.335,0,0,0,1.328-1.339,2.16,2.16,0,0,1,1.324-2,2.106,2.106,0,0,1,2.3.447,1.345,1.345,0,0,0,1.915.02l.936-.944a1.334,1.334,0,0,0-.011-1.889,2.161,2.161,0,0,1-.485-2.32l.005-.015.007-.017a2.1,2.1,0,0,1,1.943-1.312A1.344,1.344,0,0,0,26.5,15.787L26.5,14.454a1.335,1.335,0,0,0-1.339-1.328,2.119,2.119,0,0,1-1.992-1.3l0-.009A2.114,2.114,0,0,1,23.6,9.5a1.343,1.343,0,0,0,.02-1.915l-.944-.936a1.329,1.329,0,0,0-.945-.387h0a1.321,1.321,0,0,0-.943.4,2.161,2.161,0,0,1-2.32.485l-.015-.005-.017-.007a2.1,2.1,0,0,1-1.312-1.943,1.344,1.344,0,0,0-1.339-1.363l-1.333.005a1.335,1.335,0,0,0-1.328,1.339,2.118,2.118,0,0,1-1.307,2A2.15,2.15,0,0,1,9.5,6.731a1.345,1.345,0,0,0-1.915-.02l-.94.948a1.335,1.335,0,0,0,.008,1.887,2.12,2.12,0,0,1,.493,2.323.618.618,0,0,1-.035.073A2.15,2.15,0,0,1,5.2,13.209a1.345,1.345,0,0,0-1.365,1.339l.005,1.333a1.335,1.335,0,0,0,1.339,1.328,2.113,2.113,0,0,1,1.989,1.3l.007.013.005.015a2.156,2.156,0,0,1-.449,2.308,1.333,1.333,0,0,0-.012,1.905l.944.936a1.336,1.336,0,0,0,1.887-.008,2.12,2.12,0,0,1,2.323-.493A.618.618,0,0,1,11.942,23.219Z" transform="translate(-2.498 -2.498)" fill="#41416e"/>
  </g>
</svg>
