<svg id="thumbtack-Light" xmlns="http://www.w3.org/2000/svg" width="32" height="32" viewBox="0 0 32 32">
  <rect id="Path" width="32" height="32" fill="rgba(255,255,255,0)"/>
  <path id="thumbtack-Light_1_" d="M800.477,288.868l-.977-.977v-3.469a7.313,7.313,0,0,0,1.332-4.255.667.667,0,0,0-.667-.667H786.833a.667.667,0,0,0-.667.667,7.316,7.316,0,0,0,1.333,4.256v3.468l-.977.977a10.254,10.254,0,0,0-3.023,7.3.671.671,0,0,0,.195.472.664.664,0,0,0,.472.195h8.667v7.333a.667.667,0,0,0,1.333,0v-7.335h8.667a.667.667,0,0,0,.667-.667A10.251,10.251,0,0,0,800.477,288.868ZM784.859,295.5a8.92,8.92,0,0,1,2.607-5.688l1.173-1.172a.666.666,0,0,0,.195-.472v-4a.671.671,0,0,0-.195-.472,5.264,5.264,0,0,1-1.1-2.86H799.46a5.269,5.269,0,0,1-1.1,2.861.666.666,0,0,0-.195.472v4a.671.671,0,0,0,.195.472l1.173,1.172a8.924,8.924,0,0,1,2.607,5.689Z" transform="translate(-777.5 -276.167)" fill="#41416e"/>
</svg>
