<svg id="user-Light" xmlns="http://www.w3.org/2000/svg" width="32" height="32" viewBox="0 0 32 32">
  <rect id="Path" width="32" height="32" fill="rgba(255,255,255,0)"/>
  <path id="user-Light_1_" d="M697.5,508.833a6.667,6.667,0,1,0-6.667-6.667A6.674,6.674,0,0,0,697.5,508.833Zm0-12a5.333,5.333,0,1,1-5.333,5.333A5.339,5.339,0,0,1,697.5,496.833Zm10,19.289v1.348a4.7,4.7,0,0,1-1.2,3.14.666.666,0,1,1-.993-.888,3.362,3.362,0,0,0,.857-2.251v-1.348a4.681,4.681,0,0,0-3.509-4.571,1.691,1.691,0,0,0-1.241.163,8.078,8.078,0,0,1-7.828,0,1.687,1.687,0,0,0-1.245-.165,4.681,4.681,0,0,0-3.511,4.571v1.348a3.362,3.362,0,0,0,.857,2.251.667.667,0,0,1-.993.889,4.694,4.694,0,0,1-1.2-3.14v-1.348a6.012,6.012,0,0,1,4.517-5.863,3.031,3.031,0,0,1,2.225.3,6.736,6.736,0,0,0,6.519,0,3.028,3.028,0,0,1,2.221-.293A6.007,6.007,0,0,1,707.5,516.123Z" transform="translate(-681.5 -492.167)" fill="#41416e"/>
</svg>
